HIERARCHY
ROOT Hips
{
	OFFSET 0.00000 0.00000 0.00000
	CHANNELS 6 Xposition Yposition Zposition Zrotation Yrotation Xrotation 
	JOINT LHipJoint
	{
		OFFSET 0 0 0
		CHANNELS 3 Zrotation Yrotation Xrotation
		JOINT LeftUpLeg
		{
			OFFSET 1.37590 -1.78394 0.89329
			CHANNELS 3 Zrotation Yrotation Xrotation
			JOINT LeftLeg
			{
				OFFSET 2.47928 -6.81178 0.00000
				CHANNELS 3 Zrotation Yrotation Xrotation
				JOINT LeftFoot
				{
					OFFSET 2.63345 -7.23535 0.00000
					CHANNELS 3 Zrotation Yrotation Xrotation
					JOINT LeftToeBase
					{
						OFFSET 0.23938 -0.65768 2.27012
						CHANNELS 3 Zrotation Yrotation Xrotation
						End Site
						{
							OFFSET 0.00000 -0.00000 1.18363
						}
					}
				}
			}
		}
	}
	JOINT RHipJoint
	{
		OFFSET 0 0 0
		CHANNELS 3 Zrotation Yrotation Xrotation
		JOINT RightUpLeg
		{
			OFFSET -1.33617 -1.78394 0.89329
			CHANNELS 3 Zrotation Yrotation Xrotation
			JOINT RightLeg
			{
				OFFSET -2.56922 -7.05888 0.00000
				CHANNELS 3 Zrotation Yrotation Xrotation
				JOINT RightFoot
				{
					OFFSET -2.56568 -7.04915 0.00000
					CHANNELS 3 Zrotation Yrotation Xrotation
					JOINT RightToeBase
					{
						OFFSET -0.27533 -0.75646 2.18105
						CHANNELS 3 Zrotation Yrotation Xrotation
						End Site
						{
							OFFSET -0.00000 -0.00000 1.15233
						}
					}
				}
			}
		}
	}
	JOINT LowerBack
	{
		OFFSET 0 0 0
		CHANNELS 3 Zrotation Yrotation Xrotation
		JOINT Spine
		{
			OFFSET 0.06190 2.15152 -0.00935
			CHANNELS 3 Zrotation Yrotation Xrotation
			JOINT Spine1
			{
				OFFSET 0.06334 2.15332 0.00872
				CHANNELS 3 Zrotation Yrotation Xrotation
				JOINT Neck
				{
					OFFSET 0 0 0
					CHANNELS 3 Zrotation Yrotation Xrotation
					JOINT Neck1
					{
						OFFSET -0.04202 1.66908 0.23524
						CHANNELS 3 Zrotation Yrotation Xrotation
						JOINT Head
						{
							OFFSET 0.07510 1.69357 -0.24440
							CHANNELS 3 Zrotation Yrotation Xrotation
							End Site
							{
								OFFSET 0.02556 1.71719 -0.11000
							}
						}
					}
				}
				JOINT LeftShoulder
				{
					OFFSET 0 0 0
					CHANNELS 3 Zrotation Yrotation Xrotation
					JOINT LeftArm
					{
						OFFSET 3.67168 1.26306 -0.41342
						CHANNELS 3 Zrotation Yrotation Xrotation
						JOINT LeftForeArm
						{
							OFFSET 4.68510 -0.00000 -0.00000
							CHANNELS 3 Zrotation Yrotation Xrotation
							JOINT LeftHand
							{
								OFFSET 3.39626 -0.00000 -0.00000
								CHANNELS 3 Zrotation Yrotation Xrotation
								JOINT LeftFingerBase
								{
									OFFSET 0 0 0
									CHANNELS 3 Zrotation Yrotation Xrotation
									JOINT LeftHandIndex1
									{
										OFFSET 0.48608 -0.00000 -0.00000
										CHANNELS 3 Zrotation Yrotation Xrotation
										End Site
										{
											OFFSET 0.39189 -0.00000 -0.00000
										}
									}
								}
								JOINT LThumb
								{
									OFFSET 0 0 0
									CHANNELS 3 Zrotation Yrotation Xrotation
									End Site
									{
										OFFSET 0.39787 -0.00000 0.39787
									}
								}
							}
						}
					}
				}
				JOINT RightShoulder
				{
					OFFSET 0 0 0
					CHANNELS 3 Zrotation Yrotation Xrotation
					JOINT RightArm
					{
						OFFSET -3.04136 1.42992 -0.76390
						CHANNELS 3 Zrotation Yrotation Xrotation
						JOINT RightForeArm
						{
							OFFSET -5.55576 -0.00000 -0.00000
							CHANNELS 3 Zrotation Yrotation Xrotation
							JOINT RightHand
							{
								OFFSET -3.32774 -0.00000 -0.00000
								CHANNELS 3 Zrotation Yrotation Xrotation
								JOINT RightFingerBase
								{
									OFFSET 0 0 0
									CHANNELS 3 Zrotation Yrotation Xrotation
									JOINT RightHandIndex1
									{
										OFFSET -0.50763 -0.00000 -0.00000
										CHANNELS 3 Zrotation Yrotation Xrotation
										End Site
										{
											OFFSET -0.40926 -0.00000 -0.00000
										}
									}
								}
								JOINT RThumb
								{
									OFFSET 0 0 0
									CHANNELS 3 Zrotation Yrotation Xrotation
									End Site
									{
										OFFSET -0.41551 -0.00000 0.41551
									}
								}
							}
						}
					}
				}
			}
		}
	}
}
MOTION
Frames: 5
Frame Time: 0.047619
0.00 0.00 0.00 -5.8772 -80.5872 12.3885 0.0000 0.0000 0.0000 -17.2757 -4.0409 -1.3051 3.0685 10.8052 31.6256 -0.1007 -9.6591 -4.8529 0.9837 -6.3132 -17.6958 0.0000 0.0000 0.0000 17.0345 5.5582 -31.7629 -1.0903 -6.6358 18.6409 0.8846 -16.4035 -7.1294 -0.3140 -3.6024 9.9607 -1.2723 1.3415 -2.7078 0.5888 1.7751 -2.9743 1.3381 0.9021 -1.5906 -4.7335 -1.1504 -14.9433 10.5528 -1.7820 6.4406 3.9206 -0.3730 4.5133 -0.0000 -0.0000 0.0000 -113.4143 -73.0890 66.3049 50.0349 -53.0096 -26.2020 -0.0000 0.0000 -17.8539 28.3736 45.3443 21.0167 -7.1250 0.0000 -0.0000 -23.9346 78.0710 -18.6469 -0.0000 -0.0000 0.0000 69.2745 81.6615 47.0091 -47.4992 51.9357 -24.1909 0.0000 0.0000 29.8152 -46.2769 -25.0154 23.8523 7.1250 -0.0000 -0.0000 -21.6638 -62.7152 9.5572
0.00 0.00 0.00 -30.9529 -82.4825 36.0532 0.0000 0.0000 0.0000 -12.7897 -6.8214 -8.5317 6.6640 15.0423 47.5919 -0.2156 -8.2015 3.0500 1.2619 -7.1209 -20.0741 0.0000 0.0000 0.0000 23.4042 6.3044 -27.4317 -1.7629 -8.3536 23.7934 0.4133 -11.3598 -5.3647 -0.7896 -5.6722 15.8363 1.7809 1.4587 -2.0438 2.2853 1.9009 -2.5244 1.3600 0.9210 -1.4628 -3.8794 -0.7369 -16.5750 9.7502 -1.3806 7.7954 3.5836 -0.1321 5.1509 -0.0000 -0.0000 0.0000 -111.9269 -70.0397 65.6792 61.3581 -56.6611 -35.4734 -0.0000 0.0000 -28.4822 13.2857 45.4514 9.5521 -7.1250 0.0000 -0.0000 -42.1498 72.3964 -28.8242 -0.0000 -0.0000 0.0000 74.4408 79.9607 55.1170 -53.1879 54.2030 -28.7404 0.0000 0.0000 30.8588 -48.5443 -26.5109 26.8081 7.1250 -0.0000 -0.0000 -25.8848 -65.1996 13.0380
0.00 0.00 0.00 -61.0161 -82.6583 65.6310 0.0000 0.0000 0.0000 -8.2158 -10.3458 -20.1830 8.6605 16.5842 54.9083 -0.0935 -5.9785 -0.5198 1.0910 -6.6379 -18.6468 0.0000 0.0000 0.0000 28.9417 4.9296 -20.1167 -1.9329 -8.7250 24.9387 0.0926 -8.0046 -9.2223 -0.7264 -5.4459 15.1849 4.5945 2.1177 -1.4453 3.6410 2.7407 -2.0018 1.1820 1.2968 -1.2104 -3.0178 -0.0785 -18.2248 7.8625 -0.5366 9.9021 2.9578 0.2515 6.0053 -0.0000 -0.0000 0.0000 -90.2918 -64.9382 51.2659 79.2894 -59.5621 -50.7380 -0.0000 0.0000 -25.1239 -0.9053 37.6201 -0.5527 -7.1250 0.0000 -0.0000 -42.5318 62.4137 -19.8681 -0.0000 -0.0000 0.0000 42.4210 75.6715 25.5274 -76.8074 59.3320 -48.6005 0.0000 0.0000 27.8817 -45.3937 -24.8341 23.0646 7.1250 -0.0000 -0.0000 -20.2895 -62.2301 8.6915
0.00 0.00 0.00 -68.2963 -82.4321 73.1418 0.0000 0.0000 0.0000 -6.6041 -11.7533 -24.5064 7.5939 15.8122 51.0862 0.0552 -3.7881 -4.6176 0.9870 -6.3235 -17.7261 0.0000 0.0000 0.0000 30.4770 4.0655 -16.4198 -1.7933 -8.4217 24.0023 -0.0277 -7.8375 -11.7385 -0.5382 -4.7007 13.0569 5.5320 2.5121 -1.4000 3.9092 3.2462 -1.9366 0.9438 1.5334 -1.1282 -2.5793 0.3660 -18.7211 6.7128 0.0834 11.0211 2.5985 0.5033 6.4044 -0.0000 -0.0000 0.0000 -78.5452 -59.3928 41.2955 86.8753 -59.9631 -57.2943 -0.0000 0.0000 -18.9117 -2.6111 33.4734 -1.4409 -7.1250 0.0000 -0.0000 -39.3997 58.8412 -14.7567 -0.0000 -0.0000 0.0000 25.9290 72.4391 7.3857 -94.1986 59.9333 -63.6352 0.0000 0.0000 25.9095 -44.0642 -24.7768 22.0782 7.1250 -0.0000 -0.0000 -18.3427 -61.7642 7.6232
0.00 0.00 0.00 -71.6255 -82.1951 76.9181 0.0000 0.0000 0.0000 -5.3113 -12.8823 -27.4519 5.5496 13.9772 43.1461 0.1770 -1.5498 -7.5557 0.9020 -6.0528 -16.9376 0.0000 0.0000 0.0000 31.6086 3.2879 -12.8326 -1.6317 -8.0526 22.8740 -0.1300 -8.3564 -14.1785 -0.3630 -3.8701 10.7116 6.3265 2.9599 -1.5501 3.9702 3.8189 -2.0504 0.5814 1.8025 -1.1032 -2.0646 0.8331 -19.0028 5.5740 0.7245 12.1864 2.2325 0.7552 6.7982 -0.0000 0.0000 0.0000 -70.5315 -50.9388 33.0073 91.9029 -59.9863 -61.6479 -0.0000 0.0000 -11.9776 -1.4926 30.7682 -0.7637 -7.1250 0.0000 -0.0000 -35.7726 56.9252 -11.4510 -0.0000 0.0000 0.0000 12.7813 68.8971 -10.6354 -111.5358 58.1729 -78.5361 0.0000 0.0000 23.9799 -43.8400 -25.9535 22.7956 7.1250 -0.0000 -0.0000 -18.2142 -63.0889 8.1367
